<svg id="svg" version="1.1" width="583" height="249" viewBox="0 0 583 249" xmlns="http://www.w3.org/2000/svg"><path d="M239.571 85.571 C 236.046 89.097,238.989 95.000,244.272 95.000 C 247.013 95.000,250.000 91.836,250.000 88.932 C 250.000 84.751,242.734 82.409,239.571 85.571 M314.655 85.829 C 312.350 88.375,312.591 91.600,315.223 93.443 C 319.582 96.497,325.000 94.169,325.000 89.243 C 325.000 84.443,318.000 82.133,314.655 85.829 M336.000 112.000 L 336.000 140.000 341.500 140.000 L 347.000 140.000 347.000 112.000 L 347.000 84.000 341.500 84.000 L 336.000 84.000 336.000 112.000 M148.482 92.681 C 146.292 94.156,140.225 98.792,135.000 102.983 C 129.775 107.174,123.844 111.847,121.820 113.367 L 118.141 116.130 109.820 114.919 C 105.244 114.253,99.067 112.874,96.093 111.854 C 93.120 110.834,88.828 110.000,86.556 110.000 C 78.918 110.000,72.581 118.032,78.913 119.687 C 79.959 119.961,81.040 121.043,81.314 122.092 C 81.665 123.436,82.702 124.000,84.823 124.000 C 86.479 124.000,87.989 123.533,88.179 122.962 C 88.536 121.893,102.697 123.690,104.275 125.005 C 104.702 125.360,98.255 130.323,89.951 136.034 C 76.472 145.303,75.040 146.556,76.616 147.709 C 77.588 148.419,79.400 149.000,80.643 149.000 C 81.887 149.000,91.961 144.042,103.031 137.983 L 123.157 126.966 131.134 127.632 C 139.078 128.294,139.118 128.312,140.982 131.965 C 143.378 136.661,145.315 138.235,148.195 137.827 C 150.129 137.553,150.550 136.816,150.807 133.250 C 151.114 129.021,151.134 129.000,155.057 129.000 C 158.981 129.000,159.000 129.019,159.000 132.941 C 159.000 137.110,160.634 139.187,162.096 136.878 C 162.577 136.120,162.976 134.086,162.985 132.357 C 162.994 130.546,163.614 128.978,164.449 128.658 C 165.368 128.305,165.892 126.710,165.881 124.301 C 165.871 122.210,166.007 119.600,166.182 118.500 C 166.658 115.510,163.759 116.017,162.238 119.189 C 161.064 121.639,160.684 121.786,157.975 120.841 C 156.339 120.271,155.000 119.435,155.000 118.984 C 155.000 118.532,156.575 114.876,158.500 110.860 C 162.657 102.185,162.754 101.227,159.557 100.425 C 156.234 99.591,155.735 100.015,149.384 109.080 C 146.331 113.436,143.713 117.000,143.566 117.000 C 143.419 117.000,141.836 116.490,140.048 115.867 L 136.798 114.734 148.149 103.339 C 157.272 94.180,159.206 91.756,158.000 90.987 C 155.472 89.375,152.644 89.879,148.482 92.681 M143.495 104.866 L 130.500 117.731 126.203 117.256 C 123.840 116.995,122.040 116.437,122.203 116.017 C 122.524 115.191,134.235 105.768,145.495 97.276 C 149.342 94.374,153.390 92.000,154.490 92.000 C 155.921 92.000,152.789 95.664,143.495 104.866 M272.000 100.539 C 263.328 103.237,259.000 109.640,259.000 119.772 C 259.000 127.596,262.748 133.732,269.534 137.017 C 275.565 139.936,284.420 140.265,288.313 137.715 C 290.989 135.961,291.000 135.965,291.000 138.522 C 291.000 139.935,289.895 142.195,288.545 143.545 C 285.348 146.743,277.301 146.958,271.500 144.000 C 269.342 142.900,267.507 142.000,267.421 142.000 C 267.336 142.000,266.096 143.767,264.667 145.927 L 262.068 149.854 266.349 151.927 C 279.911 158.492,295.574 155.553,300.096 145.595 C 301.715 142.030,301.959 138.814,301.978 120.750 L 302.000 100.000 296.500 100.000 C 293.475 100.000,291.000 100.430,291.000 100.956 C 291.000 101.482,289.148 101.258,286.874 100.456 C 281.840 98.679,277.907 98.702,272.000 100.539 M368.000 100.331 C 362.631 102.841,360.123 105.287,358.103 109.983 C 353.027 121.782,357.456 135.202,367.872 139.582 C 372.587 141.565,379.883 141.354,384.289 139.108 C 387.220 137.613,388.000 137.508,388.000 138.608 C 388.000 139.629,389.467 140.000,393.500 140.000 L 399.000 140.000 399.000 120.000 L 399.000 100.000 393.500 100.000 C 389.275 100.000,388.000 100.348,388.000 101.502 C 388.000 102.749,387.365 102.664,384.265 101.002 C 380.076 98.757,372.073 98.427,368.000 100.331 M428.001 100.123 C 426.626 100.672,424.488 102.072,423.251 103.234 L 421.000 105.349 421.000 102.674 C 421.000 100.099,420.796 100.000,415.500 100.000 L 410.000 100.000 410.000 120.000 L 410.000 140.000 415.500 140.000 L 421.000 140.000 421.000 129.968 C 421.000 123.560,421.513 118.707,422.421 116.534 C 423.956 112.860,428.346 110.000,432.450 110.000 C 434.874 110.000,435.000 109.729,435.000 104.500 C 435.000 99.444,434.818 99.005,432.750 99.063 C 431.512 99.098,429.375 99.575,428.001 100.123 M452.707 100.533 C 442.780 104.176,438.542 110.893,439.169 121.987 C 439.502 127.872,440.008 129.442,442.608 132.655 C 449.500 141.170,462.269 143.700,471.901 138.458 C 475.872 136.296,479.884 132.313,478.819 131.588 C 478.644 131.468,477.019 130.465,475.209 129.358 L 471.919 127.346 466.983 129.789 C 463.302 131.611,461.177 132.068,458.625 131.589 C 454.673 130.848,450.000 127.509,450.000 125.427 C 450.000 124.250,452.806 124.000,466.000 124.000 L 482.000 124.000 481.978 119.750 C 481.903 105.198,466.876 95.333,452.707 100.533 M189.167 100.885 C 190.432 104.244,209.626 140.968,210.124 140.982 C 210.468 140.992,214.018 134.588,218.012 126.750 C 222.007 118.912,226.828 109.688,228.724 106.250 L 232.172 100.000 225.790 100.000 L 219.407 100.000 214.848 109.750 L 210.289 119.500 205.509 109.750 L 200.728 100.000 194.781 100.000 C 191.510 100.000,188.983 100.398,189.167 100.885 M238.000 120.000 L 238.000 140.000 243.500 140.000 L 249.000 140.000 249.000 120.000 L 249.000 100.000 243.500 100.000 L 238.000 100.000 238.000 120.000 M314.000 120.000 L 314.000 140.000 319.500 140.000 L 325.000 140.000 325.000 120.000 L 325.000 100.000 319.500 100.000 L 314.000 100.000 314.000 120.000 M160.000 102.706 C 160.000 103.094,158.370 106.884,156.378 111.129 C 152.822 118.707,152.709 118.826,150.128 117.721 C 148.683 117.102,147.355 116.504,147.179 116.393 C 147.002 116.282,148.980 112.998,151.575 109.095 C 154.597 104.551,156.960 102.000,158.147 102.000 C 159.166 102.000,160.000 102.318,160.000 102.706 M288.048 111.546 C 291.469 114.824,292.391 119.128,290.593 123.431 C 288.737 127.873,285.421 130.000,280.354 130.000 C 271.879 130.000,266.936 122.151,270.578 114.477 C 273.782 107.724,282.527 106.257,288.048 111.546 M383.705 110.228 C 384.917 110.812,386.605 112.755,387.455 114.546 C 392.151 124.443,384.442 134.102,374.503 130.776 C 369.484 129.096,366.727 125.276,366.727 120.000 C 366.727 110.994,375.184 106.127,383.705 110.228 M467.545 111.455 C 472.248 116.157,471.100 117.000,460.000 117.000 C 448.769 117.000,447.669 116.140,453.077 111.589 C 457.313 108.025,464.053 107.962,467.545 111.455 M94.251 113.387 C 98.316 114.714,109.319 116.774,119.031 118.026 C 134.886 120.070,136.685 120.502,138.506 122.701 C 139.808 124.275,141.954 125.318,144.626 125.677 C 149.997 126.397,151.320 124.532,147.668 121.391 C 144.625 118.773,145.640 117.423,149.373 119.124 C 151.515 120.100,151.806 120.742,151.304 123.387 C 150.979 125.099,150.538 126.702,150.324 126.949 C 149.278 128.157,123.945 124.911,118.672 122.893 C 114.022 121.114,112.485 120.914,110.479 121.828 C 106.837 123.487,78.000 119.233,78.000 117.036 C 78.000 115.501,82.839 112.186,86.719 111.063 C 86.840 111.029,90.229 112.074,94.251 113.387 M143.100 120.216 C 146.530 122.724,147.101 123.514,145.692 123.801 C 143.005 124.348,141.491 123.498,139.056 120.079 C 136.243 116.128,137.568 116.173,143.100 120.216 M164.122 120.675 C 162.943 122.702,162.659 122.053,163.624 119.539 C 163.966 118.645,164.458 118.124,164.715 118.382 C 164.973 118.639,164.706 119.671,164.122 120.675 M85.493 121.989 C 85.843 122.555,85.442 122.723,84.552 122.382 C 82.820 121.717,82.503 121.000,83.941 121.000 C 84.459 121.000,85.157 121.445,85.493 121.989 M155.479 123.392 C 153.862 124.574,153.776 125.025,154.910 126.392 C 155.832 127.502,155.888 128.000,155.091 128.000 C 153.606 128.000,152.620 125.433,153.362 123.500 C 153.678 122.675,154.712 122.000,155.660 122.000 C 157.203 122.000,157.184 122.145,155.479 123.392 M116.851 124.098 C 118.583 124.702,120.000 125.489,119.999 125.848 C 119.998 127.278,82.077 147.148,79.958 146.830 C 78.257 146.574,80.372 144.744,89.370 138.683 C 95.754 134.384,103.333 129.096,106.212 126.933 C 111.975 122.603,112.308 122.514,116.851 124.098 M163.363 125.025 C 164.701 126.266,163.124 128.003,160.691 127.970 C 158.610 127.941,158.595 127.884,160.401 126.835 C 162.219 125.780,162.197 125.670,159.901 124.324 L 157.500 122.917 160.000 123.571 C 161.375 123.930,162.888 124.585,163.363 125.025 M158.729 125.604 C 158.397 125.936,157.534 125.972,156.813 125.683 C 156.015 125.364,156.252 125.127,157.417 125.079 C 158.471 125.036,159.061 125.272,158.729 125.604 M147.082 129.000 C 148.607 129.000,149.000 129.716,149.000 132.500 C 149.000 135.318,148.615 136.000,147.026 136.000 C 145.851 136.000,144.434 134.805,143.526 133.050 C 141.565 129.258,141.584 127.627,143.582 128.393 C 144.452 128.727,146.027 129.000,147.082 129.000 M161.167 135.233 C 160.278 136.122,160.016 135.580,160.068 132.950 C 160.131 129.710,160.202 129.639,161.235 131.783 C 162.048 133.470,162.031 134.369,161.167 135.233 " stroke="none" fill="black" fill-rule="evenodd"/></svg>