<?xml version="1.0" encoding="UTF-8"?>
<svg version="1.1" xmlns="http://www.w3.org/2000/svg" width="2160" height="2160">
<path d="M0 0 C2.49002696 0.72830842 2.49002696 0.72830842 4.9765625 0.09741211 C9.78992455 -0.63866675 14.51428499 -0.54671743 19.375 -0.50390625 C20.34953125 -0.49939453 21.3240625 -0.49488281 22.328125 -0.49023438 C24.71881434 -0.47851531 27.1093744 -0.46210844 29.5 -0.44140625 C29.54655298 9.39087788 29.58198505 19.22313533 29.60362434 29.05550766 C29.61401552 33.6221687 29.62808842 38.18875376 29.65087891 42.75537109 C29.67277504 47.17093899 29.68460362 51.58643427 29.68975449 56.00205231 C29.69342038 57.67796215 29.70057799 59.35386849 29.71146011 61.02974701 C29.89286894 90.15292941 29.89286894 90.15292941 20.09375 101.1171875 C9.31964306 110.86141657 -3.58411281 112.30643673 -17.4921875 111.90234375 C-30.00165265 111.23770424 -40.66687253 106.50095643 -51.5 100.55859375 C-50.85334943 96.57252381 -48.88079227 93.711897 -46.6875 90.37109375 C-46.00042969 89.30503906 -45.31335937 88.23898437 -44.60546875 87.140625 C-42.5 84.55859375 -42.5 84.55859375 -40.5625 83.55078125 C-37.6858405 83.56167769 -35.8646206 84.56373038 -33.3125 85.87109375 C-24.35954183 90.15708436 -15.51734782 92.19432221 -5.8125 89.37109375 C-1.72957212 87.85498064 0.8892391 86.14838998 3.5 82.55859375 C4.38527109 78.87417871 4.38527109 78.87417871 4.5 75.55859375 C3.97535156 75.84734375 3.45070313 76.13609375 2.91015625 76.43359375 C-7.46670246 81.40619826 -20.17750005 81.07436646 -31.015625 77.52734375 C-41.98983799 73.24809089 -50.51553412 67.57558457 -55.52734375 56.515625 C-59.68192964 43.8850165 -59.71789556 29.64562286 -53.6796875 17.61328125 C-47.96073379 7.6524546 -40.58164981 2.49944219 -29.60546875 -0.8984375 C-19.65544038 -3.46440029 -9.72850476 -3.42017746 0 0 Z M-30.9375 24.93359375 C-34.84824602 31.50364706 -36.64426386 37.08468286 -35.06640625 44.6328125 C-33.15037115 50.88075303 -29.12932541 54.50221653 -23.53515625 57.671875 C-17.40165925 60.34424318 -11.10027444 59.88025972 -4.8671875 57.7734375 C0.13340506 55.2071268 3.08689714 50.89328544 5.9375 46.18359375 C7.35777564 39.55564078 7.31363608 33.36155908 3.8984375 27.37890625 C-0.83305444 21.22003685 -7.17441156 18.1408845 -14.75 17.12109375 C-21.03335336 17.85415164 -26.40549575 20.51779473 -30.9375 24.93359375 Z " fill="#FFFFFF" transform="translate(1097.5,1040.44140625)"/>
<path d="M0 0 C0.495 0.33 0.99 0.66 1.5 1 C1.07872715 5.95283356 -1.45561435 8.8132295 -4.640625 12.3828125 C-5.17133606 12.98900421 -5.70204712 13.59519592 -6.24884033 14.21975708 C-12.61466895 21.39931067 -19.42128263 28.14019078 -26.25 34.875 C-27.54474653 36.159677 -28.83901959 37.44483137 -30.1328125 38.73046875 C-33.24980876 41.82581142 -36.37303159 44.91473306 -39.5 48 C-38.4275 48.495 -37.355 48.99 -36.25 49.5 C-35.64671875 49.7784375 -35.0434375 50.056875 -34.421875 50.34375 C-32.20757164 51.21542924 -32.20757164 51.21542924 -28.5 51 C-26.7769498 49.30716876 -26.7769498 49.30716876 -25.328125 46.9765625 C-24.74973877 46.12433105 -24.17135254 45.27209961 -23.57543945 44.39404297 C-22.97304443 43.48025879 -22.37064941 42.56647461 -21.75 41.625 C-20.50104594 39.78486247 -19.24976357 37.94630297 -17.99609375 36.109375 C-17.09479736 34.78196289 -17.09479736 34.78196289 -16.17529297 33.42773438 C-8.53600695 22.35733797 -8.53600695 22.35733797 -3.5 19 C1.52539212 18.53468591 4.40578839 19.02239156 8.5 22 C8.1414253 29.61281672 5.24335721 35.46494475 1.9375 42.25 C0.90848202 44.37689218 -0.11396212 46.50698099 -1.12890625 48.640625 C-1.8106189 50.04103027 -1.8106189 50.04103027 -2.50610352 51.46972656 C-3.74373861 54.16743324 -3.74373861 54.16743324 -3.5 58 C-0.39356481 59.84085049 1.9019842 60.71960316 5.5 60 C7.75 57.16666667 7.75 57.16666667 9.5 54 C11.5 52 11.5 52 14.125 51.875 C14.90875 51.91625 15.6925 51.9575 16.5 52 C17.62847746 56.3771247 17.52217958 60.52965665 17.25 65 C17.20939453 66.04800781 17.20939453 66.04800781 17.16796875 67.1171875 C16.90736022 71.57275266 16.04981765 74.36461642 13.5 78 C11.21471061 81.9913214 10.74662947 85.93959003 10.0625 90.44140625 C9.5 93 9.5 93 7.5 96 C5.85 95.67 4.2 95.34 2.5 95 C0.60908055 89.44542412 0.31940664 84.86928404 0.5 79 C-3.79 79 -8.08 79 -12.5 79 C-12.60957031 79.97582031 -12.71914063 80.95164062 -12.83203125 81.95703125 C-12.99058594 83.22933594 -13.14914062 84.50164062 -13.3125 85.8125 C-13.53873047 87.70935547 -13.53873047 87.70935547 -13.76953125 89.64453125 C-14.7660926 94.22231843 -14.7660926 94.22231843 -17.5 96 C-22.23459208 96.62093011 -24.40680108 96.6246851 -28.5625 94.25 C-32.26195251 90.80051049 -34.29076752 86.12703644 -36.49609375 81.64453125 C-39.09523794 78.21447156 -41.4663071 77.72950266 -45.5 77 C-46.27964111 76.81139404 -47.05928223 76.62278809 -47.86254883 76.4284668 C-66.6123159 72.16176662 -78.93385878 78.47246481 -94.40478516 88.08349609 C-98.38562067 90.54836112 -102.45587145 92.81637833 -106.5625 95.0625 C-107.23708252 95.44003418 -107.91166504 95.81756836 -108.60668945 96.20654297 C-115.5183123 100.06861497 -122.53805967 103.72386442 -129.5625 107.375 C-130.70533447 107.97062744 -131.84816895 108.56625488 -133.02563477 109.17993164 C-151.80991539 118.89717654 -151.80991539 118.89717654 -159.5 118 C-162.5 116.5 -162.5 116.5 -164.5 115 C-163.83663483 109.74845227 -161.88874688 108.12108638 -157.93847656 104.86962891 C-153.52374121 101.48476274 -148.96937797 98.32232647 -144.375 95.1875 C-142.32899268 93.7779741 -140.28341858 92.36781915 -138.23828125 90.95703125 C-137.25424316 90.27979004 -136.27020508 89.60254883 -135.25634766 88.90478516 C-129.61876157 85.00890857 -124.04925196 81.02053241 -118.5 77 C-117.64664063 76.38382813 -116.79328125 75.76765625 -115.9140625 75.1328125 C-112.13209355 72.57129984 -112.13209355 72.57129984 -109.5 69 C-119.50357732 67.54493421 -129.36424355 66.34460522 -139.5 67 C-139.83 67.33 -140.16 67.66 -140.5 68 C-142.2872057 68.15135944 -144.08161876 68.22175778 -145.875 68.25 C-146.85210938 68.27578125 -147.82921875 68.3015625 -148.8359375 68.328125 C-151.92179154 67.94804914 -152.61368896 67.38479564 -154.5 65 C-157.7006345 61.45637055 -157.7006345 61.45637055 -161.75 59.125 C-163.5 58 -163.5 58 -164.5 54.75 C-164.5 50.02834973 -163.62859135 48.51012688 -160.5 45 C-152.3829874 38.9529886 -145.51403312 38.3820232 -135.5 39 C-131.01602385 39.80129646 -126.69067753 41.00330349 -122.3125 42.25 C-117.38227459 43.52913068 -112.44246534 44.76907322 -107.5 46 C-106.29327637 46.30276855 -105.08655273 46.60553711 -103.84326172 46.91748047 C-89.62419533 50.7986043 -89.62419533 50.7986043 -75.74609375 47.953125 C-72.22061956 45.56240896 -69.20984768 42.74513321 -66.23242188 39.71044922 C-63.513851 37.02635853 -60.48124282 34.79839702 -57.4375 32.5 C-56.28494983 31.59601991 -55.13520739 30.68844875 -53.98828125 29.77734375 C-53.41674316 29.32343262 -52.84520508 28.86952148 -52.25634766 28.40185547 C-50.45199664 26.96168539 -48.65292709 25.51516818 -46.85546875 24.06640625 C-40.33227205 18.80877654 -33.77673558 13.59442842 -27.125 8.5 C-26.18068115 7.76148804 -26.18068115 7.76148804 -25.21728516 7.00805664 C-17.91343204 1.47138809 -9.26864501 -3.707458 0 0 Z M-17.5 9.625 C-18.11375488 10.02106445 -18.72750977 10.41712891 -19.35986328 10.82519531 C-33.48593567 20.13468162 -46.43087596 31.28679016 -59.5 42 C-60.64696817 42.93770461 -61.7940961 43.87521384 -62.94140625 44.8125 C-65.46247039 46.87313991 -67.98208078 48.93551963 -70.5 51 C-65.7096918 54.1935388 -61.18798209 54.91492083 -55.5 54 C-50.88818442 50.97939564 -47.39145313 47.08062336 -43.75 43 C-42.76755275 41.94360162 -41.78188975 40.89018436 -40.79296875 39.83984375 C-39.34782697 38.30392423 -37.90560174 36.76625799 -36.47674561 35.21516418 C-33.25364215 31.72699488 -29.87170866 28.58498705 -26.24707031 25.52490234 C-23.52693258 23.15067369 -21.14267945 20.51040396 -18.75 17.8125 C-13.75982732 12.24980043 -13.75982732 12.24980043 -11.171875 9.76171875 C-9.27054368 8.16300449 -9.27054368 8.16300449 -9.5 6 C-12.66200103 6 -14.91606573 7.95679085 -17.5 9.625 Z M-5.171875 28.609375 C-11.65847556 35.27011249 -16.69326078 43.55896955 -20.5 52 C-16.74875582 54.24596343 -16.74875582 54.24596343 -12.54296875 55.015625 C-9.26567445 53.38637736 -8.12898933 50.33817911 -6.5625 47.1875 C-6.21840088 46.5162207 -5.87430176 45.84494141 -5.51977539 45.15332031 C-0.96990576 36.29704246 -0.96990576 36.29704246 2.5 27 C2.17 26.01 1.84 25.02 1.5 24 C-0.98550478 24 -3.43255458 27.07026413 -5.171875 28.609375 Z M-150.6875 45.8125 C-151.52667969 46.33457031 -152.36585938 46.85664062 -153.23046875 47.39453125 C-155.22161503 48.80307019 -156.85194646 50.21237189 -158.5 52 C-158.17 52.99 -157.84 53.98 -157.5 55 C-138.92676099 62.40115433 -111.78165407 65.96114675 -92.0625 62.1875 C-87.84832473 61.63545859 -84.3960667 62.8244106 -80.4375 64.125 C-71.80294839 66.95265396 -63.01477658 68.42222337 -54.0625 69.8125 C-53.02245316 69.97845673 -53.02245316 69.97845673 -51.96139526 70.14776611 C-44.12387882 71.39002944 -36.45321424 72.3728624 -28.5 72 C-29.1180249 71.69441162 -29.7360498 71.38882324 -30.37280273 71.07397461 C-32.50785444 69.99603447 -34.52874697 68.82037037 -36.5625 67.5625 C-37.23410156 67.15128906 -37.90570312 66.74007813 -38.59765625 66.31640625 C-40.5 65 -40.5 65 -41.7800293 63.51196289 C-48.74517523 57.38915966 -65.03581553 57.6989318 -74.00396729 56.49557495 C-117.08276434 50.68212523 -117.08276434 50.68212523 -136.29296875 43.91796875 C-142.08618552 42.25973983 -145.60599325 42.57451663 -150.6875 45.8125 Z M-38.5 56 C-37.10321501 60.44431588 -35.18754281 63.13191114 -31.5 66 C-27.78999282 66.41831404 -27.78999282 66.41831404 -24.5 66 C-28.20060202 62.07511907 -31.9906925 58.97784457 -36.5 56 C-37.16 56 -37.82 56 -38.5 56 Z M-23.5 57 C-21.21320518 61.09215914 -18.59346293 64.49950248 -15.5 68 C-15.17 68 -14.84 68 -14.5 68 C-13.99874717 64.66857722 -13.99874717 64.66857722 -14.5 61 C-17.62055757 58.29551677 -19.33274304 57 -23.5 57 Z M-112.05444336 80.19238281 C-117.06235967 83.98968979 -122.18812617 87.5454927 -127.4375 91 C-133.7044309 95.12745269 -139.91835352 99.31633822 -146.0625 103.625 C-146.79525146 104.13417969 -147.52800293 104.64335938 -148.28295898 105.16796875 C-151.94654119 107.56629019 -151.94654119 107.56629019 -154.5 111 C-150.7793298 110.39156492 -147.74399416 109.33232248 -144.3515625 107.69921875 C-143.35809814 107.22299072 -142.36463379 106.7467627 -141.34106445 106.25610352 C-140.27976318 105.73846436 -139.21846191 105.2208252 -138.125 104.6875 C-136.46247192 103.88107056 -136.46247192 103.88107056 -134.76635742 103.05834961 C-119.27922409 95.50249576 -104.02093188 87.60725071 -89.125 78.9375 C-88.17278564 78.38908447 -87.22057129 77.84066895 -86.23950195 77.27563477 C-85.36898193 76.76057373 -84.49846191 76.2455127 -83.6015625 75.71484375 C-82.44648193 75.03603149 -82.44648193 75.03603149 -81.26806641 74.34350586 C-79.19739592 73.03223469 -79.19739592 73.03223469 -78.5 70 C-93.10377768 63.95705751 -100.48781437 71.36793146 -112.05444336 80.19238281 Z M7.5 69 C7.17 70.65 6.84 72.3 6.5 74 C7.82 73.67 9.14 73.34 10.5 73 C9.84 71.68 9.18 70.36 8.5 69 C8.17 69 7.84 69 7.5 69 Z M-16.5 69 C-16.5 69.66 -16.5 70.32 -16.5 71 C-22.44 71.495 -22.44 71.495 -28.5 72 C-28.5 72.33 -28.5 72.66 -28.5 73 C-24.54 73 -20.58 73 -16.5 73 C-16.17 71.68 -15.84 70.36 -15.5 69 C-15.83 69 -16.16 69 -16.5 69 Z M-31.5 77 C-28.84406002 85.34881993 -28.84406002 85.34881993 -22.5 91 C-21.51 90.67 -20.52 90.34 -19.5 90 C-19.5 86.37 -19.5 82.74 -19.5 79 C-20.923125 78.67 -22.34625 78.34 -23.8125 78 C-24.61300781 77.814375 -25.41351562 77.62875 -26.23828125 77.4375 C-28.60695938 76.90504177 -28.60695938 76.90504177 -31.5 77 Z M4.5 83 C4.5 84.98 4.5 86.96 4.5 89 C5.16 88.67 5.82 88.34 6.5 88 C6.17 86.35 5.84 84.7 5.5 83 C5.17 83 4.84 83 4.5 83 Z " fill="#FFFFFF" transform="translate(838.5,1021)"/>
<path d="M0 0 C1.19625 0.391875 2.3925 0.78375 3.625 1.1875 C4.40875 1.455625 5.1925 1.72375 6 2 C6.66 1.01 7.32 0.02 8 -1 C15.26 -1 22.52 -1 30 -1 C30 25.73 30 52.46 30 80 C9 80 9 80 5 77 C2.47900681 77.47321493 2.47900681 77.47321493 0 78.75 C-9.25516578 82.98254533 -21.19266326 83.87734404 -31.0625 80.8125 C-41.24618872 76.59382356 -49.30414245 69.97959219 -53.9296875 59.85546875 C-59.31895034 45.4775449 -59.24226948 31.08512089 -53 17 C-48.12329639 7.48448077 -40.40322255 0.97817881 -30.22265625 -2.34375 C-20.06521791 -4.41217381 -9.64677398 -3.81038278 0 0 Z M-30.5 25.5 C-34.498667 32.16444501 -34.86104517 38.35029347 -34 46 C-32.01359046 52.31955407 -28.57699947 55.92572792 -22.8671875 59.125 C-17.1139289 61.82108771 -9.91540385 62.2345868 -3.83203125 60.31640625 C1.22077856 57.62826681 4.47094371 53.62123935 7.3125 48.75 C9.32606269 40.69574925 8.20953711 33.1599165 4 26 C-0.15360589 21.13233596 -4.66392527 18.61106845 -11.0234375 17.71484375 C-18.63545354 17.1940216 -25.14412224 20.14412224 -30.5 25.5 Z " fill="#FFFFFF" transform="translate(1291,1041)"/>
<path d="M0 0 C7.97340698 6.43016692 13.1738313 15.3656074 14.87109375 25.47265625 C14.99982596 28.25341676 14.97793764 31.0256511 14.94140625 33.80859375 C14.93633057 34.54746826 14.93125488 35.28634277 14.92602539 36.04760742 C14.91286811 37.85600187 14.89269431 39.66434295 14.87109375 41.47265625 C14.28608597 41.48296371 13.70107819 41.49327118 13.0983429 41.50389099 C6.94885388 41.61299753 0.7994812 41.72749531 -5.34985352 41.8449707 C-7.6375889 41.8879896 -9.92534963 41.92968411 -12.21313477 41.9699707 C-29.69551831 42.23309895 -29.69551831 42.23309895 -47.12890625 43.47265625 C-47.12890625 44.46265625 -47.12890625 45.45265625 -47.12890625 46.47265625 C-42.06217979 51.526523 -36.55531645 54.05912398 -29.50390625 54.91015625 C-22.46377012 54.74769157 -15.69945531 50.92151117 -9.69140625 47.53515625 C-7.12890625 46.47265625 -7.12890625 46.47265625 -4.83203125 47.1796875 C-1.82822765 48.61647795 0.89292264 50.2820389 3.68359375 52.09765625 C4.65941406 52.72929688 5.63523437 53.3609375 6.640625 54.01171875 C7.37667969 54.49382812 8.11273437 54.9759375 8.87109375 55.47265625 C8.01672523 61.36277334 5.51553042 63.92147171 0.87109375 67.47265625 C-11.90388667 75.29891282 -24.20657794 77.82790853 -39.12890625 75.47265625 C-51.74442129 72.31877749 -63.26770324 64.37211115 -70.12890625 53.22265625 C-74.26316101 41.85345566 -74.34298773 24.44184719 -69.25 13.48046875 C-68.69505859 12.48660156 -68.69505859 12.48660156 -68.12890625 11.47265625 C-67.29359375 9.89484375 -67.29359375 9.89484375 -66.44140625 8.28515625 C-49.50305971 -12.31553549 -21.48907306 -15.41693132 0 0 Z M-49.12890625 22.47265625 C-47.53026231 25.57980517 -47.53026231 25.57980517 -45.2734375 25.984375 C-27.82468871 27.93812968 -27.82468871 27.93812968 -11.12890625 24.47265625 C-11.21027149 21.70623807 -11.69607885 19.96167948 -13.54296875 17.875 C-18.21004703 13.6910774 -22.18752624 11.74500625 -28.50390625 11.16015625 C-37.59278981 11.94368069 -42.70391518 16.21126449 -49.12890625 22.47265625 Z " fill="#FFFFFF" transform="translate(1472.12890625,1047.52734375)"/>
<path d="M0 0 C7.92 0 15.84 0 24 0 C26.42477029 4.80369408 28.84708009 9.6084676 31.26318359 14.41650391 C32.08629062 16.05264441 32.91083051 17.68806488 33.73681641 19.32275391 C34.92204878 21.66903023 36.1021477 24.01782585 37.28125 26.3671875 C37.65310425 27.10057343 38.0249585 27.83395935 38.40808105 28.58956909 C41 33.77225659 41 33.77225659 41 36 C41.66 36 42.32 36 43 36 C43.35707031 34.80503906 43.71414063 33.61007812 44.08203125 32.37890625 C46.33329143 25.62512572 49.55746231 19.31468851 52.6875 12.9375 C53.30063767 11.67798128 53.91327173 10.41821728 54.52539062 9.15820312 C56.01199171 6.10306231 57.50531907 3.05119601 59 0 C67.91 0 76.82 0 86 0 C85.03133431 4.84332846 83.43417794 8.08601856 81 12.25 C76.38551787 20.34171325 72.08328274 28.57225139 67.84310913 36.86364746 C64.57569754 43.24941705 61.28713142 49.62436557 58 56 C57.48261261 57.00474365 57.48261261 57.00474365 56.95477295 58.02978516 C54.72043127 62.3646979 52.46033198 66.68514207 50.1875 71 C49.33526855 72.65515625 49.33526855 72.65515625 48.46582031 74.34375 C47.9344043 75.3440625 47.40298828 76.344375 46.85546875 77.375 C46.39809326 78.24898437 45.94071777 79.12296875 45.46948242 80.0234375 C44 82 44 82 41.8215332 82.7890625 C40.91987427 82.89347656 40.91987427 82.89347656 40 83 C31.91503265 68.22633795 24.03154863 53.36437734 16.30859375 38.3984375 C12.9753764 31.94026863 9.5972582 25.50652401 6.19458008 19.0847168 C5.47356044 17.72127358 4.75707731 16.35541837 4.04589844 14.98681641 C3.32010062 13.60807162 2.5716127 12.24112749 1.80566406 10.88427734 C1.42893555 10.19414551 1.05220703 9.50401367 0.6640625 8.79296875 C0.32068848 8.18348389 -0.02268555 7.57399902 -0.37646484 6.94604492 C-1 5 -1 5 0 0 Z " fill="#FFFFFF" transform="translate(901,1040)"/>
<path d="M0 0 C7.92 0 15.84 0 24 0 C24 37.29 24 74.58 24 113 C16.08 113 8.16 113 0 113 C0 75.71 0 38.42 0 0 Z " fill="#FFFFFF" transform="translate(1193,1008)"/>
<path d="M0 0 C1.16171778 2.32343556 1.12903969 3.69633316 1.1328125 6.28125 C1.13474609 7.54388672 1.13474609 7.54388672 1.13671875 8.83203125 C1.13285156 9.71246094 1.12898438 10.59289063 1.125 11.5 C1.13080078 12.82064453 1.13080078 12.82064453 1.13671875 14.16796875 C1.13542969 15.00972656 1.13414063 15.85148437 1.1328125 16.71875 C1.13168457 17.49154297 1.13055664 18.26433594 1.12939453 19.06054688 C1 21 1 21 0 23 C-2.04464193 23.53236743 -4.11262116 23.9764357 -6.1875 24.375 C-13.85216951 26.05217057 -18.57893381 28.21050549 -23 35 C-26.76725434 45.31038029 -26.26919098 56.71724923 -26.5625 67.5625 C-26.60578362 69.06316078 -26.6494007 70.56381197 -26.69335938 72.06445312 C-26.80003486 75.70953416 -26.89986638 79.35471015 -27 83 C-34.92 83 -42.84 83 -51 83 C-51 56.27 -51 29.54 -51 2 C-29 2 -29 2 -27 3 C-26.59270772 5.32156597 -26.25561323 7.6568787 -26 10 C-25.39865234 9.41992188 -25.39865234 9.41992188 -24.78515625 8.828125 C-17.17232053 1.85400793 -10.33331761 -0.77661677 0 0 Z " fill="#FFFFFF" transform="translate(1392,1038)"/>
<path d="M0 0 C7.92 0 15.84 0 24 0 C24 26.73 24 53.46 24 81 C16.08 81 8.16 81 0 81 C0 54.27 0 27.54 0 0 Z " fill="#FFFFFF" transform="translate(1149,1040)"/>
<path d="M0 0 C7.92 0 15.84 0 24 0 C24 26.73 24 53.46 24 81 C16.08 81 8.16 81 0 81 C0 54.27 0 27.54 0 0 Z " fill="#FFFFFF" transform="translate(997,1040)"/>
<path d="M0 0 C3.85544798 1.99657127 5.59805092 3.39707638 8 7 C8.47364652 11.81540624 8.49199653 14.05114955 6.25 18.375 C2.90168092 22.28137226 1.36839527 22.84035389 -3.75 23.4375 C-8.65672571 23.33623549 -12.27655068 21.06418523 -16 18 C-17.74221711 14.51556578 -17.58675154 10.80112955 -17 7 C-13.00084001 -0.22236356 -7.63447671 -0.86648969 0 0 Z " fill="#FFFFFF" transform="translate(1165,1008)"/>
<path d="M0 0 C4.09766202 1.5176526 7.0115827 3.02316541 9 7 C9.55425081 11.27564908 9.3051626 13.43326945 7.25 17.25 C2.76970541 22.72591561 2.76970541 22.72591561 -1.04296875 23.31640625 C-6.52246584 23.60093625 -9.71429948 22.65852484 -14 19 C-16.81725233 14.7741215 -16.79958384 10.96375312 -16 6 C-11.31973522 -0.03507826 -7.25772457 -0.68422993 0 0 Z " fill="#FFFFFF" transform="translate(1014,1008)"/>
</svg>
